<svg width="349" height="51" viewBox="0 0 349 51" fill="none" xmlns="http://www.w3.org/2000/svg">
<g filter="url(#filter0_i_2_6)">
<path d="M15.535 50C14.9717 50 14.4733 49.87 14.04 49.61C13.6067 49.3067 13.39 48.8733 13.39 48.31V6.515H2.47C1.95 6.515 1.53833 6.32 1.235 5.93C0.931667 5.49666 0.78 5.02 0.78 4.5C0.78 3.98 0.931667 3.525 1.235 3.135C1.53833 2.70167 1.95 2.485 2.47 2.485H28.535C29.0983 2.485 29.51 2.70167 29.77 3.135C30.03 3.525 30.16 3.95833 30.16 4.435C30.16 4.955 30.03 5.43167 29.77 5.865C29.51 6.29833 29.0983 6.515 28.535 6.515H17.68V48.31C17.68 48.8733 17.4417 49.3067 16.965 49.61C16.5317 49.87 16.055 50 15.535 50ZM41.0678 50.455C38.7711 50.455 36.6695 49.8917 34.7628 48.765C32.8995 47.6383 31.4045 46.1433 30.2778 44.28C29.1945 42.3733 28.6528 40.3583 28.6528 38.235V20.945C28.6528 20.5117 28.8695 20.1217 29.3028 19.775C29.7361 19.4283 30.2345 19.255 30.7978 19.255C31.3611 19.255 31.8378 19.4283 32.2278 19.775C32.6611 20.1217 32.8778 20.5117 32.8778 20.945V38.235C32.8778 39.665 33.2461 41.0083 33.9828 42.265C34.7195 43.5217 35.6945 44.5617 36.9078 45.385C38.1211 46.165 39.4861 46.555 41.0028 46.555C42.5628 46.555 43.9495 46.165 45.1628 45.385C46.3761 44.605 47.3295 43.5867 48.0228 42.33C48.7595 41.03 49.1278 39.665 49.1278 38.235V20.88C49.1278 20.4033 49.3445 20.0133 49.7778 19.71C50.2111 19.4067 50.7095 19.255 51.2728 19.255C51.9228 19.255 52.4211 19.4067 52.7678 19.71C53.1578 20.0133 53.3528 20.4033 53.3528 20.88V38.235C53.3528 40.445 52.7895 42.4817 51.6628 44.345C50.5795 46.165 49.0845 47.6383 47.1778 48.765C45.3145 49.8917 43.2778 50.455 41.0678 50.455ZM71.4939 50.455C69.5006 50.455 67.6156 49.8917 65.8389 48.765C64.0622 47.595 62.6322 46.0567 61.5489 44.15C60.5089 42.2433 59.9889 40.2283 59.9889 38.105V31.085C59.9889 28.8317 60.5089 26.795 61.5489 24.975C62.6322 23.1117 64.0622 21.6383 65.8389 20.555C67.6156 19.4283 69.5656 18.865 71.6889 18.865C73.8122 18.865 75.5889 19.385 77.0189 20.425C78.4922 21.4217 79.5756 22.5483 80.2689 23.805V2.03C80.2689 1.51 80.4856 1.12 80.9189 0.859997C81.3522 0.556665 81.8506 0.404999 82.4139 0.404999C83.0639 0.404999 83.5622 0.556665 83.9089 0.859997C84.2989 1.12 84.4939 1.51 84.4939 2.03V48.31C84.4939 48.7433 84.2989 49.1333 83.9089 49.48C83.5622 49.8267 83.0639 50 82.4139 50C81.8939 50 81.4172 49.8267 80.9839 49.48C80.5939 49.1333 80.3989 48.7433 80.3989 48.31V45.45C79.7489 46.7933 78.6006 47.9633 76.9539 48.96C75.3506 49.9567 73.5306 50.455 71.4939 50.455ZM72.2739 46.555C73.8339 46.555 75.1989 46.165 76.3689 45.385C77.5822 44.5617 78.5356 43.6517 79.2289 42.655C79.9222 41.615 80.2689 40.77 80.2689 40.12V31.085C80.2689 29.3083 79.8789 27.8133 79.0989 26.6C78.3189 25.3867 77.3222 24.455 76.1089 23.805C74.8956 23.1117 73.6389 22.765 72.3389 22.765C70.8656 22.765 69.5222 23.1767 68.3089 24C67.0956 24.78 66.1206 25.7983 65.3839 27.055C64.6472 28.3117 64.2789 29.655 64.2789 31.085V38.105C64.2789 39.535 64.6472 40.9 65.3839 42.2C66.1206 43.5 67.0956 44.5617 68.3089 45.385C69.5222 46.165 70.8439 46.555 72.2739 46.555ZM103.823 50.455C101.613 50.455 99.5766 49.8917 97.7133 48.765C95.8499 47.595 94.3333 46.0783 93.1633 44.215C92.0366 42.3083 91.4733 40.2717 91.4733 38.105V31.085C91.4733 28.875 92.0149 26.86 93.0983 25.04C94.2249 23.1767 95.7199 21.6817 97.5833 20.555C99.4899 19.4283 101.57 18.865 103.823 18.865C106.033 18.865 108.07 19.4283 109.933 20.555C111.84 21.6383 113.357 23.09 114.483 24.91C115.61 26.73 116.173 28.7883 116.173 31.085V38.105C116.173 40.2283 115.61 42.2433 114.483 44.15C113.357 46.0567 111.84 47.595 109.933 48.765C108.07 49.8917 106.033 50.455 103.823 50.455ZM103.823 46.555C105.34 46.555 106.705 46.165 107.918 45.385C109.132 44.5617 110.107 43.5 110.843 42.2C111.58 40.9 111.948 39.535 111.948 38.105V31.085C111.948 29.655 111.58 28.3117 110.843 27.055C110.15 25.7983 109.175 24.78 107.918 24C106.705 23.1767 105.34 22.765 103.823 22.765C102.307 22.765 100.942 23.1767 99.7283 24C98.5149 24.78 97.5399 25.7983 96.8033 27.055C96.0666 28.3117 95.6983 29.655 95.6983 31.085V38.105C95.6983 39.535 96.0666 40.9 96.8033 42.2C97.5399 43.5 98.5149 44.5617 99.7283 45.385C100.985 46.165 102.35 46.555 103.823 46.555Z" fill="#F57B0A"/>
<path d="M137.022 50.39C134.595 50.39 132.342 49.935 130.262 49.025C128.182 48.115 126.535 46.6417 125.322 44.605C124.109 42.5683 123.502 39.86 123.502 36.48V16.395C123.502 13.015 124.13 10.3067 125.387 8.27C126.644 6.23333 128.29 4.76 130.327 3.85C132.407 2.94 134.682 2.485 137.152 2.485C140.012 2.485 142.439 2.98333 144.432 3.98C146.425 4.97666 147.942 6.29833 148.982 7.945C150.065 9.59167 150.607 11.4117 150.607 13.405C150.607 14.445 150.412 15.1383 150.022 15.485C149.675 15.7883 149.155 15.94 148.462 15.94C147.682 15.94 147.119 15.7883 146.772 15.485C146.469 15.1383 146.295 14.7483 146.252 14.315C146.252 13.6217 146.122 12.8417 145.862 11.975C145.645 11.065 145.212 10.1983 144.562 9.375C143.955 8.50833 143.045 7.815 141.832 7.295C140.662 6.73167 139.124 6.45 137.217 6.45C134.184 6.45 131.865 7.27333 130.262 8.92C128.659 10.5233 127.857 13.015 127.857 16.395V36.48C127.857 39.9033 128.659 42.4167 130.262 44.02C131.909 45.6233 134.292 46.425 137.412 46.425C139.362 46.425 140.9 46.165 142.027 45.645C143.154 45.0817 143.999 44.41 144.562 43.63C145.125 42.8067 145.515 41.94 145.732 41.03C145.992 40.0767 146.165 39.21 146.252 38.43C146.339 37.8667 146.534 37.455 146.837 37.195C147.184 36.8917 147.704 36.74 148.397 36.74C149.134 36.74 149.675 36.935 150.022 37.325C150.412 37.6717 150.607 38.365 150.607 39.405C150.607 41.355 150.065 43.175 148.982 44.865C147.899 46.5117 146.339 47.855 144.302 48.895C142.309 49.8917 139.882 50.39 137.022 50.39ZM168.442 50.455C166.232 50.455 164.196 49.8917 162.332 48.765C160.469 47.595 158.952 46.0783 157.782 44.215C156.656 42.3083 156.092 40.2717 156.092 38.105V31.085C156.092 28.875 156.634 26.86 157.717 25.04C158.844 23.1767 160.339 21.6817 162.202 20.555C164.109 19.4283 166.189 18.865 168.442 18.865C170.652 18.865 172.689 19.4283 174.552 20.555C176.459 21.6383 177.976 23.09 179.102 24.91C180.229 26.73 180.792 28.7883 180.792 31.085V38.105C180.792 40.2283 180.229 42.2433 179.102 44.15C177.976 46.0567 176.459 47.595 174.552 48.765C172.689 49.8917 170.652 50.455 168.442 50.455ZM168.442 46.555C169.959 46.555 171.324 46.165 172.537 45.385C173.751 44.5617 174.726 43.5 175.462 42.2C176.199 40.9 176.567 39.535 176.567 38.105V31.085C176.567 29.655 176.199 28.3117 175.462 27.055C174.769 25.7983 173.794 24.78 172.537 24C171.324 23.1767 169.959 22.765 168.442 22.765C166.926 22.765 165.561 23.1767 164.347 24C163.134 24.78 162.159 25.7983 161.422 27.055C160.686 28.3117 160.317 29.655 160.317 31.085V38.105C160.317 39.535 160.686 40.9 161.422 42.2C162.159 43.5 163.134 44.5617 164.347 45.385C165.604 46.165 166.969 46.555 168.442 46.555ZM189.811 50C189.248 50 188.75 49.8267 188.316 49.48C187.926 49.1333 187.731 48.7433 187.731 48.31V20.88C187.731 20.36 187.926 19.97 188.316 19.71C188.75 19.4067 189.248 19.255 189.811 19.255C190.375 19.255 190.851 19.4067 191.241 19.71C191.631 19.97 191.826 20.36 191.826 20.88V23.805C192.52 22.5483 193.603 21.4217 195.076 20.425C196.55 19.385 198.37 18.865 200.536 18.865C202.616 18.865 204.523 19.4283 206.256 20.555C208.033 21.6383 209.441 23.1117 210.481 24.975C211.521 26.795 212.041 28.8317 212.041 31.085V48.31C212.041 48.8733 211.825 49.3067 211.391 49.61C210.958 49.87 210.46 50 209.896 50C209.42 50 208.943 49.87 208.466 49.61C208.033 49.3067 207.816 48.8733 207.816 48.31V31.085C207.816 29.655 207.448 28.3117 206.711 27.055C205.975 25.7983 205 24.78 203.786 24C202.573 23.1767 201.23 22.765 199.756 22.765C198.456 22.765 197.2 23.1117 195.986 23.805C194.816 24.455 193.841 25.3867 193.061 26.6C192.325 27.8133 191.956 29.3083 191.956 31.085V48.31C191.956 48.7433 191.74 49.1333 191.306 49.48C190.916 49.8267 190.418 50 189.811 50ZM231.42 50.455C228.56 50.455 226.199 49.9133 224.335 48.83C222.472 47.7467 221.085 46.2733 220.175 44.41C219.265 42.5467 218.81 40.445 218.81 38.105V31.215C218.81 28.875 219.244 26.7733 220.11 24.91C221.02 23.0467 222.407 21.5733 224.27 20.49C226.177 19.4067 228.56 18.865 231.42 18.865C233.24 18.865 234.822 19.1033 236.165 19.58C237.552 20.0133 238.614 20.555 239.35 21.205C240.13 21.855 240.52 22.4833 240.52 23.09C240.52 23.3933 240.434 23.7183 240.26 24.065C240.13 24.3683 239.914 24.6283 239.61 24.845C239.35 25.0617 239.047 25.17 238.7 25.17C238.31 25.17 237.855 24.975 237.335 24.585C236.859 24.1517 236.187 23.74 235.32 23.35C234.454 22.96 233.219 22.765 231.615 22.765C228.799 22.765 226.654 23.5233 225.18 25.04C223.75 26.5133 223.035 28.5717 223.035 31.215V38.105C223.035 40.7483 223.75 42.8283 225.18 44.345C226.654 45.8183 228.82 46.555 231.68 46.555C233.327 46.555 234.605 46.36 235.515 45.97C236.425 45.5367 237.119 45.125 237.595 44.735C238.115 44.3017 238.592 44.085 239.025 44.085C239.415 44.085 239.74 44.1933 240 44.41C240.304 44.6267 240.52 44.8867 240.65 45.19C240.824 45.4933 240.91 45.8183 240.91 46.165C240.91 46.7283 240.52 47.3567 239.74 48.05C238.96 48.7 237.855 49.2633 236.425 49.74C235.039 50.2167 233.37 50.455 231.42 50.455ZM258.792 50.455C256.496 50.455 254.394 49.8917 252.487 48.765C250.624 47.6383 249.129 46.1433 248.002 44.28C246.919 42.3733 246.377 40.3583 246.377 38.235V20.945C246.377 20.5117 246.594 20.1217 247.027 19.775C247.461 19.4283 247.959 19.255 248.522 19.255C249.086 19.255 249.562 19.4283 249.952 19.775C250.386 20.1217 250.602 20.5117 250.602 20.945V38.235C250.602 39.665 250.971 41.0083 251.707 42.265C252.444 43.5217 253.419 44.5617 254.632 45.385C255.846 46.165 257.211 46.555 258.727 46.555C260.287 46.555 261.674 46.165 262.887 45.385C264.101 44.605 265.054 43.5867 265.747 42.33C266.484 41.03 266.852 39.665 266.852 38.235V20.88C266.852 20.4033 267.069 20.0133 267.502 19.71C267.936 19.4067 268.434 19.255 268.997 19.255C269.647 19.255 270.146 19.4067 270.492 19.71C270.882 20.0133 271.077 20.4033 271.077 20.88V38.235C271.077 40.445 270.514 42.4817 269.387 44.345C268.304 46.165 266.809 47.6383 264.902 48.765C263.039 49.8917 261.002 50.455 258.792 50.455ZM280.964 50C280.4 50 279.902 49.8267 279.469 49.48C279.079 49.1333 278.884 48.7433 278.884 48.31V20.88C278.884 20.36 279.079 19.97 279.469 19.71C279.902 19.4067 280.4 19.255 280.964 19.255C281.527 19.255 282.004 19.4067 282.394 19.71C282.784 19.97 282.979 20.36 282.979 20.88V24.065C283.455 23.155 284.105 22.31 284.929 21.53C285.752 20.75 286.727 20.1217 287.854 19.645C288.98 19.125 290.259 18.865 291.689 18.865H293.964C294.44 18.865 294.83 19.06 295.134 19.45C295.48 19.84 295.654 20.295 295.654 20.815C295.654 21.3783 295.48 21.855 295.134 22.245C294.83 22.5917 294.44 22.765 293.964 22.765H291.689C290.259 22.765 288.872 23.155 287.529 23.935C286.229 24.715 285.167 25.7983 284.344 27.185C283.52 28.5717 283.109 30.2617 283.109 32.255V48.31C283.109 48.7433 282.892 49.1333 282.459 49.48C282.069 49.8267 281.57 50 280.964 50ZM308.47 50.455C306.433 50.455 304.635 50.195 303.075 49.675C301.558 49.155 300.366 48.5483 299.5 47.855C298.676 47.1183 298.265 46.425 298.265 45.775C298.265 45.4717 298.33 45.19 298.46 44.93C298.59 44.6267 298.763 44.3667 298.98 44.15C299.24 43.9333 299.5 43.825 299.76 43.825C300.236 43.825 300.756 44.085 301.32 44.605C301.926 45.0817 302.75 45.58 303.79 46.1C304.873 46.62 306.39 46.88 308.34 46.88C310.81 46.88 312.543 46.425 313.54 45.515C314.536 44.5617 315.035 43.4783 315.035 42.265C315.035 40.835 314.645 39.73 313.865 38.95C313.128 38.1267 312.131 37.4983 310.875 37.065C309.661 36.6317 308.361 36.22 306.975 35.83C305.631 35.44 304.331 34.9633 303.075 34.4C301.861 33.8367 300.865 33.035 300.085 31.995C299.348 30.9117 298.98 29.4817 298.98 27.705C298.98 26.3183 299.326 24.9533 300.02 23.61C300.713 22.2667 301.796 21.14 303.27 20.23C304.786 19.32 306.78 18.865 309.25 18.865C310.68 18.865 312.066 19.0167 313.41 19.32C314.753 19.6233 315.836 20.035 316.66 20.555C317.526 21.0317 317.96 21.5517 317.96 22.115C317.96 22.2883 317.873 22.57 317.7 22.96C317.57 23.3067 317.375 23.61 317.115 23.87C316.855 24.13 316.551 24.26 316.205 24.26C315.858 24.26 315.381 24.1083 314.775 23.805C314.211 23.5017 313.475 23.1983 312.565 22.895C311.655 22.5917 310.571 22.44 309.315 22.44C307.755 22.44 306.498 22.7217 305.545 23.285C304.591 23.8483 303.898 24.52 303.465 25.3C303.031 26.08 302.815 26.8383 302.815 27.575C302.815 28.7883 303.205 29.72 303.985 30.37C304.765 31.02 305.761 31.5617 306.975 31.995C308.231 32.385 309.531 32.775 310.875 33.165C312.261 33.5117 313.561 34.01 314.775 34.66C316.031 35.31 317.028 36.22 317.765 37.39C318.545 38.56 318.935 40.12 318.935 42.07C318.935 44.6267 318.025 46.6633 316.205 48.18C314.385 49.6967 311.806 50.455 308.47 50.455ZM336.401 50.455C334.191 50.455 332.155 49.8917 330.291 48.765C328.428 47.595 326.911 46.0783 325.741 44.215C324.615 42.3083 324.051 40.2717 324.051 38.105V31.085C324.051 28.875 324.593 26.86 325.676 25.04C326.803 23.1767 328.298 21.6817 330.161 20.555C332.068 19.4283 334.148 18.865 336.401 18.865C338.611 18.865 340.648 19.4283 342.511 20.555C344.418 21.6383 345.935 23.09 347.061 24.91C348.188 26.73 348.751 28.7883 348.751 31.085V38.105C348.751 40.2283 348.188 42.2433 347.061 44.15C345.935 46.0567 344.418 47.595 342.511 48.765C340.648 49.8917 338.611 50.455 336.401 50.455ZM336.401 46.555C337.918 46.555 339.283 46.165 340.496 45.385C341.71 44.5617 342.685 43.5 343.421 42.2C344.158 40.9 344.526 39.535 344.526 38.105V31.085C344.526 29.655 344.158 28.3117 343.421 27.055C342.728 25.7983 341.753 24.78 340.496 24C339.283 23.1767 337.918 22.765 336.401 22.765C334.885 22.765 333.52 23.1767 332.306 24C331.093 24.78 330.118 25.7983 329.381 27.055C328.645 28.3117 328.276 29.655 328.276 31.085V38.105C328.276 39.535 328.645 40.9 329.381 42.2C330.118 43.5 331.093 44.5617 332.306 45.385C333.563 46.165 334.928 46.555 336.401 46.555Z" fill="#6C77DD"/>
</g>
<defs>
<filter id="filter0_i_2_6" x="0.779999" y="0.404999" width="347.971" height="51.05" filterUnits="userSpaceOnUse" color-interpolation-filters="sRGB">
<feFlood flood-opacity="0" result="BackgroundImageFix"/>
<feBlend mode="normal" in="SourceGraphic" in2="BackgroundImageFix" result="shape"/>
<feColorMatrix in="SourceAlpha" type="matrix" values="0 0 0 0 0 0 0 0 0 0 0 0 0 0 0 0 0 0 127 0" result="hardAlpha"/>
<feOffset dy="10"/>
<feGaussianBlur stdDeviation="0.5"/>
<feComposite in2="hardAlpha" operator="arithmetic" k2="-1" k3="1"/>
<feColorMatrix type="matrix" values="0 0 0 0 0 0 0 0 0 0 0 0 0 0 0 0 0 0 0.2 0"/>
<feBlend mode="normal" in2="shape" result="effect1_innerShadow_2_6"/>
</filter>
</defs>
</svg>
